<svg xmlns="http://www.w3.org/2000/svg" xmlns:xlink="http://www.w3.org/1999/xlink" xmlns:lucid="lucid" width="910.44" height="1345"><g transform="translate(12.375 740)" lucid:page-tab-id="0_0"><path d="M198.06-720c11.05 0 20 8.95 20 20s-8.95 20-20 20h-80c-11.04 0-20-8.95-20-20s8.96-20 20-20z" stroke="#000" stroke-width="3" fill="#fff"/><use xlink:href="#a" transform="matrix(1,0,0,1,103.0627370381469,-715) translate(30.330520833333345 22.654079861111104)"/><path d="M152.55-597.7a14 14 0 0 1 11.03 0l128.97 55.3a2.57 2.57 0 0 1 0 4.73l-128.97 55.3a14 14 0 0 1-11.03 0l-128.97-55.3a2.57 2.57 0 0 1 0-4.73z" stroke="#000" stroke-width="3" fill="#fff"/><use xlink:href="#b" transform="matrix(1,0,0,1,23.062737038146878,-595.0663488092996) translate(64.69792534722225 48.5290798611111)"/><use xlink:href="#c" transform="matrix(1,0,0,1,23.062737038146878,-595.0663488092996) translate(146.74002604166668 48.5290798611111)"/><use xlink:href="#d" transform="matrix(1,0,0,1,23.062737038146878,-595.0663488092996) translate(87.5386371527778 77.58723958333331)"/><path d="M158.06-677.5v58.66" stroke="#000" stroke-width="2" fill="none"/><path d="M159.06-677.47h-2v-1.03h2z" stroke="#000" stroke-width=".05"/><path d="M158.06-603.57l-4.63-14.27h9.27z" stroke="#000" stroke-width="2"/><path d="M472.7-597.38a12 12 0 0 1 10.73 0l109.27 54.66a3 3 0 0 1 0 5.37l-109.27 54.67a12 12 0 0 1-10.73 0l-109.27-54.67a3 3 0 0 1 0-5.37z" stroke="#000" stroke-width="3" fill="#fff"/><use xlink:href="#e" transform="matrix(1,0,0,1,363.06273703814696,-595.0663488092996) translate(83.25586805555557 34.65407986111111)"/><use xlink:href="#f" transform="matrix(1,0,0,1,363.06273703814696,-595.0663488092996) translate(28.649748263888906 63.71223958333332)"/><use xlink:href="#g" transform="matrix(1,0,0,1,363.06273703814696,-595.0663488092996) translate(106.42752604166668 63.71223958333332)"/><path d="M310.74-539.03h-14.12v-2h14.12zm31.02 0H329.5v-2h12.26z" stroke="#000" stroke-width=".05"/><path d="M296.64-539.03h-1.15l.12-1-.1-.95 1.12-.05z"/><path d="M296.67-539h-1.2l.12-1.03-.12-.97 1.2-.06zm-1.13-1.95l.1.92-.13.97h1.12V-541z" stroke="#000" stroke-width=".05"/><path d="M357.02-540.03l-14.26 4.63v-9.27z"/><path d="M360.26-540.03l-18.5 6v-12zm-16.5 3.26l10.03-3.26-10.04-3.26z" stroke="#000" stroke-width=".05"/><use xlink:href="#h" transform="matrix(1,0,0,1,310.7358542966422,-551.6564382935387) translate(0 16.62326388888889)"/><path d="M623.96-539.03h-27.1v-2h27.1zm50.06 0h-31.3v-2H674z" stroke="#000" stroke-width=".05"/><path d="M596.9-539.03h-1.15l.12-1-.12-1h1.14z"/><path d="M596.9-539h-1.18l.12-1.03-.1-1.02h1.17zm-1.12-2l.1.97-.1.97h1.1V-541z" stroke="#000" stroke-width=".05"/><path d="M689.28-540.03l-14.26 4.63v-9.27z"/><path d="M692.52-540.03l-18.5 6v-12zm-16.5 3.26l10.03-3.26-10.03-3.26z" stroke="#000" stroke-width=".05"/><use xlink:href="#h" transform="matrix(1,0,0,1,623.9579582028365,-551.6564382935387) translate(0 16.62326388888889)"/><path d="M679.6-594.27a4.6 4.6 0 0 1 4.46-5.8h148a4.6 4.6 0 0 1 4.46 5.8L807.6-485.8a7.8 7.8 0 0 1-7.56 5.8h-83.96a7.8 7.8 0 0 1-7.55-5.8z" stroke="#000" stroke-width="3" fill="#fff"/><use xlink:href="#i" transform="matrix(1,0,0,1,683.0627370381469,-595.0663488092996) translate(19.38434027777779 20.779079861111107)"/><use xlink:href="#j" transform="matrix(1,0,0,1,683.0627370381469,-595.0663488092996) translate(63.893888888888895 20.779079861111107)"/><use xlink:href="#k" transform="matrix(1,0,0,1,683.0627370381469,-595.0663488092996) translate(110.89909722222221 20.779079861111107)"/><use xlink:href="#l" transform="matrix(1,0,0,1,683.0627370381469,-595.0663488092996) translate(15.787335069444461 49.83723958333332)"/><use xlink:href="#m" transform="matrix(1,0,0,1,683.0627370381469,-595.0663488092996) translate(77.56033854166667 49.83723958333332)"/><use xlink:href="#n" transform="matrix(1,0,0,1,683.0627370381469,-595.0663488092996) translate(45.42600694444445 78.89539930555554)"/><use xlink:href="#o" transform="matrix(1,0,0,1,683.0627370381469,-595.0663488092996) translate(40.369583333333345 107.95355902777774)"/><path d="M758.06-602.57v-33a6 6 0 0 0-6-6h-588a6 6 0 0 0-6 6v16.73" stroke="#000" stroke-width="2" fill="none"/><path d="M759.06-601.57h-2v-1.02h2z" stroke="#000" stroke-width=".05"/><path d="M158.06-603.57l-4.63-14.27h9.27z" stroke="#000" stroke-width="2"/><path d="M400-393a6 6 0 0 1 6-6h148a6 6 0 0 1 6 6v68a6 6 0 0 1-6 6H406a6 6 0 0 1-6-6z" stroke="#000" stroke-width="3" fill="#fff"/><use xlink:href="#p" transform="matrix(1,0,0,1,412,-387.00818908707737) translate(22.671223958333343 20.779079861111107)"/><use xlink:href="#q" transform="matrix(1,0,0,1,412,-387.00818908707737) translate(82.52365451388889 20.779079861111107)"/><use xlink:href="#r" transform="matrix(1,0,0,1,412,-387.00818908707737) translate(11.728298611111128 49.83723958333332)"/><use xlink:href="#s" transform="matrix(1,0,0,1,412,-387.00818908707737) translate(65.69965277777777 49.83723958333332)"/><path d="M481-419h-2v-9.6h2zm-1.94-32.83h-2v-27.1h2z" stroke="#000" stroke-width=".05"/><path d="M478.06-479.92l1-.04v1.07h-2v-1.06z"/><path d="M478.06-479.94l1.03-.05v1.13h-2.06V-480zm-.97 1.02h1.94v-1.02l-.98.05-.97-.04z" stroke="#000" stroke-width=".05"/><path d="M480-403.74L475.37-418h9.26z"/><path d="M480-400.5l-6-18.5h12zm-3.26-16.5L480-407l3.26-10.03z" stroke="#000" stroke-width=".05"/><use xlink:href="#t" transform="matrix(1,0,0,1,467.1520282412957,-451.8350852068841) translate(0 16.62326388888889)"/><path d="M159.06-420.07h-2v-8.95h2zm0-32.2h-2v-26.46h2z" stroke="#000" stroke-width=".05"/><path d="M158.06-479.73l1-.04v1.06h-2v-1.07z"/><path d="M158.06-479.76l1.03-.04v1.12h-2.06v-1.12zm-.97 1.03h1.94v-1l-.98.02-.97-.05z" stroke="#000" stroke-width=".05"/><path d="M158.06-404.8l-4.63-14.27h9.27z"/><path d="M158.06-401.57l-6-18.5h12zm-3.26-16.5l3.26 10.03 3.26-10.03z" stroke="#000" stroke-width=".05"/><use xlink:href="#h" transform="matrix(1,0,0,1,148.6877370381469,-452.27188740538867) translate(0 16.62326388888889)"/><path d="M78.06-394.07a6 6 0 0 1 6-6h148a6 6 0 0 1 6 6v70.12a6 6 0 0 1-6 6h-148a6 6 0 0 1-6-6z" stroke="#000" stroke-width="3" fill="#fff"/><use xlink:href="#u" transform="matrix(1,0,0,1,90.06273703814686,-388.0663488092996) translate(24.684027777777786 24.466579861111107)"/><use xlink:href="#q" transform="matrix(1,0,0,1,90.06273703814686,-388.0663488092996) translate(80.51085069444443 24.466579861111107)"/><use xlink:href="#r" transform="matrix(1,0,0,1,90.06273703814686,-388.0663488092996) translate(11.728298611111128 53.52473958333332)"/><use xlink:href="#s" transform="matrix(1,0,0,1,90.06273703814686,-388.0663488092996) translate(65.69965277777777 53.52473958333332)"/><path d="M152.88-197.04a10.28 10.28 0 0 1 10.37 0l109.63 63.98a3.5 3.5 0 0 1 0 6.05L163.25-63.03a10.28 10.28 0 0 1-10.37 0l-109.63-64a3.5 3.5 0 0 1 0-6.04z" stroke="#000" stroke-width="3" fill="#fff"/><use xlink:href="#v" transform="matrix(1,0,0,1,43.062737038146906,-195.0663488092996) translate(52.977005208333345 53.52907986111111)"/><use xlink:href="#w" transform="matrix(1,0,0,1,43.062737038146906,-195.0663488092996) translate(42.26194444444446 82.58723958333331)"/><use xlink:href="#g" transform="matrix(1,0,0,1,43.062737038146906,-195.0663488092996) translate(92.81532986111111 82.58723958333331)"/><path d="M240.56-359H314a6 6 0 0 1 6 6v107.05a6 6 0 0 1-6 6H164.06a6 6 0 0 0-6 6v15.5" stroke="#000" stroke-width="2" fill="none"/><path d="M240.6-358h-1.04v-2h1.03z" stroke="#000" stroke-width=".05"/><path d="M158.06-203.18l-4.63-14.27h9.27z" stroke="#000" stroke-width="2"/><path d="M397.5-359h-20.83a.17.17 0 0 0-.17.16.17.17 0 0 1-.17.17H326a6 6 0 0 0-6 6V-246a6 6 0 0 1-6 6H164.06a6 6 0 0 0-6 6v15.55" stroke="#000" stroke-width="2" fill="none"/><path d="M398.5-358h-1.03v-2h1.03z" stroke="#000" stroke-width=".05"/><path d="M158.06-203.18l-4.63-14.27h9.27z" stroke="#000" stroke-width="2"/><path d="M200-414a6 6 0 0 1 6-6h228a6 6 0 0 1 6 6v48a6 6 0 0 1-6 6H206a6 6 0 0 1-6-6z" fill="none"/><use xlink:href="#x" transform="matrix(1,0,0,1,200,-420) translate(64.60449218750001 22.548828125)"/><use xlink:href="#y" transform="matrix(1,0,0,1,200,-420) translate(98.9794921875 22.548828125)"/><use xlink:href="#z" transform="matrix(1,0,0,1,200,-420) translate(161.9873046875 22.548828125)"/><use xlink:href="#A" transform="matrix(1,0,0,1,200,-420) translate(73.6767578125 48.701171875)"/><use xlink:href="#B" transform="matrix(1,0,0,1,200,-420) translate(115.2978515625 48.701171875)"/><path d="M1-136.07l.06.82.2.76.3.74.4.66.5.6.6.5.67.42.73.3.76.18.82.07H39v2H5.96l-1.06-.1-1.06-.24-1.02-.42-.94-.57-.83-.7-.72-.85-.57-.93-.42-1.02-.26-1.07L-1-136v-43.15h2zm152.16-104.85l1.07.26 1 .42.95.57.83.72.73.83.57.94.42 1.02.26 1.06.08 1.06v15.6h-2v-15.52l-.06-.82-.2-.76-.3-.73-.4-.67-.5-.6-.6-.5-.67-.4-.72-.3-.76-.2-.82-.06H6.04l-.82.06-.76.2-.73.3-.67.4-.6.5-.5.6-.4.67-.3.73-.2.76-.06.82v31.56h-2v-31.64l.08-1.06.26-1.06.42-1.02.57-.94.72-.83.83-.72.94-.57 1.02-.42 1.06-.26 1.06-.08H152.1z" stroke="#000" stroke-width=".05"/><path d="M40-130.03l.1 1h-1.13v-2h1.13z"/><path d="M40.02-130.03l.1 1.02h-1.17v-2.06h1.18zM39-131v1.94h1.08l-.1-.97.1-.98z" stroke="#000" stroke-width=".05"/><path d="M158.06-203.18l-4.63-14.27h9.27z"/><path d="M158.06-199.95l-6-18.5h12zm-3.26-16.5l3.26 10.03 3.26-10.03z" stroke="#000" stroke-width=".05"/><use xlink:href="#h" transform="matrix(1,0,0,1,-9.375,-202.40028310604507) translate(0 16.62326388888889)"/><path d="M358.06-131.03v2h-19.84v-2zm-80.94 2v-2h37.34v2z" stroke="#000" stroke-width=".05"/><path d="M277.15-129.03h-1.13l.1-1-.1-1h1.13z"/><path d="M277.18-129h-1.2l.12-1.03-.1-1.03h1.18zm-1.13-2l.1.97-.1.97h1.08V-131z" stroke="#000" stroke-width=".05"/><path d="M373.33-130.03l-14.27 4.63v-9.27z"/><path d="M376.56-130.03l-18.5 6v-12zm-16.5 3.26l10.03-3.26-10.04-3.26z" stroke="#000" stroke-width=".05"/><use xlink:href="#t" transform="matrix(1,0,0,1,314.4647903068812,-141.65643846038463) translate(0 16.62326388888889)"/><path d="M378.06-179.62a6 6 0 0 1 6-6h148a6 6 0 0 1 6 6v99.17a6 6 0 0 1-6 6h-148a6 6 0 0 1-6-6z" stroke="#000" stroke-width="3" fill="#fff"/><use xlink:href="#C" transform="matrix(1,0,0,1,390.06273703814696,-173.62041398798314) translate(27.933810763888893 23.52907986111111)"/><use xlink:href="#D" transform="matrix(1,0,0,1,390.06273703814696,-173.62041398798314) translate(5.63563368055555 52.58723958333333)"/><use xlink:href="#E" transform="matrix(1,0,0,1,390.06273703814696,-173.62041398798314) translate(69.83919270833334 52.58723958333333)"/><use xlink:href="#F" transform="matrix(1,0,0,1,390.06273703814696,-173.62041398798314) translate(19.44856770833333 81.64539930555556)"/><use xlink:href="#G" transform="matrix(1,0,0,1,390.06273703814696,-173.62041398798314) translate(69.96940104166666 81.64539930555556)"/><path d="M453.26-36.4a8 8 0 0 1 9.6 0l70.4 52.8a4.5 4.5 0 0 1 0 7.2l-70.4 52.8a8 8 0 0 1-9.6 0l-70.4-52.8a4.5 4.5 0 0 1 0-7.2z" stroke="#000" stroke-width="3" fill="#fff"/><use xlink:href="#H" transform="matrix(1,0,0,1,383.06273703814696,-35) translate(55.54427951388889 44.841579861111114)"/><use xlink:href="#I" transform="matrix(1,0,0,1,383.06273703814696,-35) translate(79.69792534722222 44.841579861111114)"/><use xlink:href="#J" transform="matrix(1,0,0,1,383.06273703814696,-35) translate(34.94966145833333 73.89973958333333)"/><path d="M458.06-71.95V-58" stroke="#000" stroke-width="2" fill="none"/><path d="M459.06-71.92h-2v-1.03h2z" stroke="#000" stroke-width=".05"/><path d="M458.06-42.74L453.43-57h9.27z" stroke="#000" stroke-width="2"/><path d="M159.06 13.96l.07.82.18.76.3.73.42.67.5.6.6.5.67.4.72.3.76.2.82.06h153.4v2H164l-1.05-.08-1.07-.26-1.02-.42-.93-.57-.84-.72-.7-.83-.58-.94-.42-1.02-.25-1.06-.1-1.06v-55.66h2zM378.56 19v2h-42.32v-2z" stroke="#000" stroke-width=".05"/><path d="M379.56 20l.1 1h-1.13v-2h1.12z"/><path d="M379.58 20l.1 1.02h-1.17v-2.04h1.18zm-1.02-.98v1.96h1.06l-.1-.98.1-.98z" stroke="#000" stroke-width=".05"/><path d="M162.7-42.62h-9.27l4.63-14.27z"/><path d="M164.07-41.62h-12.02l6-18.5zm-9.27-2h6.52l-3.26-10.03z" stroke="#000" stroke-width=".05"/><use xlink:href="#h" transform="matrix(1,0,0,1,317.48773703814743,8.37673611111111) translate(0 16.62326388888889)"/><path d="M453.38 143.75a7.5 7.5 0 0 1 9.37 0l90.63 72.5a4.8 4.8 0 0 1 0 7.5l-90.63 72.5a7.5 7.5 0 0 1-9.37 0l-90.63-72.5a4.8 4.8 0 0 1 0-7.5z" stroke="#000" stroke-width="3" fill="#fff"/><use xlink:href="#K" transform="matrix(1,0,0,1,363.06273703814696,145.00000000000006) translate(60.46723958333333 48.904079861111114)"/><use xlink:href="#L" transform="matrix(1,0,0,1,363.06273703814696,145.00000000000006) translate(39.53625000000001 77.96223958333333)"/><use xlink:href="#M" transform="matrix(1,0,0,1,363.06273703814696,145.00000000000006) translate(91.90170138888888 77.96223958333333)"/><use xlink:href="#N" transform="matrix(1,0,0,1,363.06273703814696,145.00000000000006) translate(47.538637152777774 107.02039930555556)"/><path d="M459.06 122.1h-2v-4.66h2zm0-27.9h-2V80.5h2z" stroke="#000" stroke-width=".05"/><path d="M458.06 79.5l1-.06v1.1h-2v-1.1z"/><path d="M458.06 79.48l1.03-.07v1.15h-2.06V79.4zm-.97 1.02h1.94v-1.03l-.98.06-.97-.06z" stroke="#000" stroke-width=".05"/><path d="M458.06 137.37l-4.63-14.27h9.27z"/><path d="M458.06 140.6l-6-18.5h12zm-3.26-16.5l3.26 10.03 3.26-10.03z" stroke="#000" stroke-width=".05"/><use xlink:href="#t" transform="matrix(1,0,0,1,446.1833967603692,94.19413749276302) translate(0 16.62326388888889)"/><path d="M752.7 162.68a12 12 0 0 1 10.73 0l109.27 54.67a3 3 0 0 1 0 5.37l-109.27 54.66a12 12 0 0 1-10.73 0l-109.27-54.66a3 3 0 0 1 0-5.37z" stroke="#000" stroke-width="3" fill="#fff"/><use xlink:href="#O" transform="matrix(1,0,0,1,643.0627370381469,164.99999999999994) translate(89.58182291666667 34.65407986111111)"/><use xlink:href="#f" transform="matrix(1,0,0,1,643.0627370381469,164.99999999999994) translate(28.649748263888906 63.71223958333332)"/><use xlink:href="#g" transform="matrix(1,0,0,1,643.0627370381469,164.99999999999994) translate(106.42752604166668 63.71223958333332)"/><path d="M621.76 219.03v2l-13.9-.02v-2zM557.68 221v-2h31.42v2z" stroke="#000" stroke-width=".05"/><path d="M557.7 221h-1.1l.08-1-.08-1h1.1z"/><path d="M557.74 221.03h-1.17l.1-1.03-.1-1.03h1.17zm-1.12-2l.1.97-.1.97h1.07v-1.94z" stroke="#000" stroke-width=".05"/><path d="M637.02 220.03l-14.26 4.64v-9.27z"/><path d="M640.26 220.03l-18.5 6v-12zm-16.5 3.26l10.03-3.27-10.04-3.26z" stroke="#000" stroke-width=".05"/><use xlink:href="#h" transform="matrix(1,0,0,1,589.0979179941685,208.393323313436) translate(0 16.62326388888889)"/><path d="M678.06 346a6 6 0 0 1 6-6h148a6 6 0 0 1 6 6v68a6 6 0 0 1-6 6h-148a6 6 0 0 1-6-6z" stroke="#000" stroke-width="3" fill="#fff"/><use xlink:href="#p" transform="matrix(1,0,0,1,690.0627370381469,352) translate(22.671223958333343 20.779079861111107)"/><use xlink:href="#q" transform="matrix(1,0,0,1,690.0627370381469,352) translate(82.52365451388889 20.779079861111107)"/><use xlink:href="#r" transform="matrix(1,0,0,1,690.0627370381469,352) translate(11.728298611111128 49.83723958333332)"/><use xlink:href="#s" transform="matrix(1,0,0,1,690.0627370381469,352) translate(65.69965277777777 49.83723958333332)"/><path d="M759.06 297.7h-2v-16.55h2z" stroke="#000" stroke-width=".05"/><path d="M758.06 280.15l1-.05v1.08h-2v-1.08z"/><path d="M758.06 280.13l1.03-.05v1.12h-2.06v-1.12zm-.97 1.02h1.94v-1.02l-.98.05-.97-.05z" stroke="#000" stroke-width=".05"/><path d="M758.06 335.26L753.43 321h9.27z"/><path d="M758.06 338.5l-5.7-17.55h11.4zM754.8 322l3.26 10.03 3.26-10.03z" stroke="#000" stroke-width=".05"/><use xlink:href="#t" transform="matrix(1,0,0,1,746.1833967564933,297.70218374121436) translate(0 16.62326388888889)"/><path d="M378.06 346a6 6 0 0 1 6-6h148a6 6 0 0 1 6 6v70.12a6 6 0 0 1-6 6h-148a6 6 0 0 1-6-6z" stroke="#000" stroke-width="3" fill="#fff"/><use xlink:href="#u" transform="matrix(1,0,0,1,390.06273703814696,351.99999999999994) translate(24.684027777777786 24.466579861111107)"/><use xlink:href="#q" transform="matrix(1,0,0,1,390.06273703814696,351.99999999999994) translate(80.51085069444443 24.466579861111107)"/><use xlink:href="#r" transform="matrix(1,0,0,1,390.06273703814696,351.99999999999994) translate(11.728298611111128 53.52473958333332)"/><use xlink:href="#s" transform="matrix(1,0,0,1,390.06273703814696,351.99999999999994) translate(65.69965277777777 53.52473958333332)"/><path d="M459.06 307.33h-2v-6.93h2z" stroke="#000" stroke-width=".05"/><path d="M458.06 299.4l1-.07v1.1h-2v-1.1z"/><path d="M458.06 299.37l1.03-.07v1.15h-2.06v-1.15zm-.97 1.03h1.94v-1.04l-.98.06-.97-.06z" stroke="#000" stroke-width=".05"/><path d="M458.06 335.26l-1.52-4.7h3.05z"/><path d="M458.06 338.5l-2.57-7.93h2.1l.46 1.46.48-1.46h2.1z" stroke="#000" stroke-width=".05"/><g><use xlink:href="#t" transform="matrix(1,0,0,1,446.1833967603692,307.3261175442824) translate(0 16.62326388888889)"/></g><path d="M678.06-214a6 6 0 0 1 6-6h148a6 6 0 0 1 6 6v180.35c-26.72-31.12-43.36-31.12-53.44-31.12-16 0-37.28 31.12-53.28 31.12-9.92 0-26.72 0-53.28-31.12z" stroke="#000" stroke-width="3" fill="#fff"/><g><use xlink:href="#P" transform="matrix(1,0,0,1,683.0627370381469,-215) translate(19.482421875 25.34157986111111)"/><use xlink:href="#Q" transform="matrix(1,0,0,1,683.0627370381469,-215) translate(74.40863715277777 25.34157986111111)"/><use xlink:href="#R" transform="matrix(1,0,0,1,683.0627370381469,-215) translate(37.109375 54.39973958333333)"/><use xlink:href="#S" transform="matrix(1,0,0,1,683.0627370381469,-215) translate(36.800130208333336 83.45789930555556)"/><use xlink:href="#T" transform="matrix(1,0,0,1,683.0627370381469,-215) translate(82.39474826388889 83.45789930555556)"/><use xlink:href="#U" transform="matrix(1,0,0,1,683.0627370381469,-215) translate(40.185546875 112.51605902777777)"/><use xlink:href="#V" transform="matrix(1,0,0,1,683.0627370381469,-215) translate(26.291232638888893 141.57421875)"/></g><path d="M678.06-1.6a6 6 0 0 1 6-6h148a6 6 0 0 1 6 6v108a6 6 0 0 1-6 6h-148a6 6 0 0 1-6-6z" stroke="#000" stroke-width="3" fill="#fff"/><g><use xlink:href="#W" transform="matrix(1,0,0,1,690.0627370381469,4.403828758908901) translate(38.13346354166667 23.779079861111107)"/><use xlink:href="#q" transform="matrix(1,0,0,1,690.0627370381469,4.403828758908901) translate(67.06141493055556 23.779079861111107)"/><use xlink:href="#X" transform="matrix(1,0,0,1,690.0627370381469,4.403828758908901) translate(10.990451388888893 52.83723958333332)"/><use xlink:href="#Y" transform="matrix(1,0,0,1,690.0627370381469,4.403828758908901) translate(107.12760416666666 52.83723958333332)"/><use xlink:href="#Z" transform="matrix(1,0,0,1,690.0627370381469,4.403828758908901) translate(18.06510416666667 81.89539930555554)"/><use xlink:href="#aa" transform="matrix(1,0,0,1,690.0627370381469,4.403828758908901) translate(56.25954861111111 81.89539930555554)"/></g><path d="M758.06-10.1v-19" stroke="#000" stroke-width="2" fill="none"/><path d="M759.06-9.1h-2v-1.02h2z" stroke="#000" stroke-width=".05"/><path d="M758.06-44.37l4.64 14.27h-9.27z" stroke="#000" stroke-width="2"/><path d="M518.06 486a6 6 0 0 1 6-6h148a6 6 0 0 1 6 6v88a6 6 0 0 1-6 6h-148a6 6 0 0 1-6-6z" stroke="#000" stroke-width="3" fill="#fff"/><g><use xlink:href="#ab" transform="matrix(1,0,0,1,530.0627370381469,492) translate(2.6733940972222285 20.779079861111107)"/><use xlink:href="#ac" transform="matrix(1,0,0,1,530.0627370381469,492) translate(90.19509548611111 20.779079861111107)"/><use xlink:href="#ad" transform="matrix(1,0,0,1,530.0627370381469,492) translate(12.531250000000014 49.83723958333332)"/><use xlink:href="#ae" transform="matrix(1,0,0,1,530.0627370381469,492) translate(64.89670138888889 49.83723958333332)"/><use xlink:href="#af" transform="matrix(1,0,0,1,530.0627370381469,492) translate(44.70898437500001 78.89539930555554)"/></g><path d="M458.06 424.62v20.44a6 6 0 0 0 6 6h128a6 6 0 0 1 6 6V460" stroke="#000" stroke-width="2" fill="none"/><path d="M459.06 424.64h-2v-1.02h2z" stroke="#000" stroke-width=".05"/><path d="M598.06 475.26L593.43 461h9.27z" stroke="#000" stroke-width="2"/><path d="M758.06 422.5V444a6 6 0 0 1-6 6h-148a6 6 0 0 0-6 6v4" stroke="#000" stroke-width="2" fill="none"/><path d="M759.06 422.53h-2v-1.03h2z" stroke="#000" stroke-width=".05"/><path d="M598.06 475.26L593.43 461h9.27z" stroke="#000" stroke-width="2"/><path d="M38.06 481a6 6 0 0 1 6-6h228a6 6 0 0 1 6 6v98a6 6 0 0 1-6 6h-228a6 6 0 0 1-6-6z" stroke="#000" stroke-width="3" fill="#fff"/><g><use xlink:href="#W" transform="matrix(1,0,0,1,50.062737038146906,487) translate(17.42925347222223 23.466579861111107)"/><use xlink:href="#Z" transform="matrix(1,0,0,1,50.062737038146906,487) translate(46.357204861111114 23.466579861111107)"/><use xlink:href="#X" transform="matrix(1,0,0,1,50.062737038146906,487) translate(84.55164930555554 23.466579861111107)"/><use xlink:href="#Y" transform="matrix(1,0,0,1,50.062737038146906,487) translate(180.68880208333331 23.466579861111107)"/><use xlink:href="#Z" transform="matrix(1,0,0,1,50.062737038146906,487) translate(53.69227430555557 52.52473958333332)"/><use xlink:href="#ag" transform="matrix(1,0,0,1,50.062737038146906,487) translate(91.88671875 52.52473958333332)"/><use xlink:href="#ah" transform="matrix(1,0,0,1,50.062737038146906,487) translate(16.810763888888914 81.58289930555554)"/><use xlink:href="#ai" transform="matrix(1,0,0,1,50.062737038146906,487) translate(102.44444444444447 81.58289930555554)"/><use xlink:href="#aj" transform="matrix(1,0,0,1,50.062737038146906,487) translate(145.59765625 81.58289930555554)"/></g><path d="M515.56 530h-217.5" stroke="#000" stroke-width="2" fill="none"/><path d="M516.56 531h-1.02v-2h1.02z" stroke="#000" stroke-width=".05"/><path d="M282.8 530l14.26-4.63v9.26z" stroke="#000" stroke-width="2"/><path d="M78.06 138.52a6 6 0 0 1 6-6h148a6 6 0 0 1 6 6v284.96c-26.72-48.6-43.36-48.6-53.44-48.6-16 0-37.28 48.6-53.28 48.6-9.92 0-26.72 0-53.28-48.6z" stroke="#000" stroke-width="3" fill="#fff"/><g><use xlink:href="#P" transform="matrix(1,0,0,1,83.0627370381469,137.52083333333331) translate(19.482421875 28.06032986111111)"/><use xlink:href="#Q" transform="matrix(1,0,0,1,83.0627370381469,137.52083333333331) translate(74.40863715277777 28.06032986111111)"/><use xlink:href="#R" transform="matrix(1,0,0,1,83.0627370381469,137.52083333333331) translate(37.109375 57.11848958333333)"/><use xlink:href="#S" transform="matrix(1,0,0,1,83.0627370381469,137.52083333333331) translate(36.800130208333336 86.17664930555556)"/><use xlink:href="#T" transform="matrix(1,0,0,1,83.0627370381469,137.52083333333331) translate(82.39474826388889 86.17664930555556)"/><use xlink:href="#U" transform="matrix(1,0,0,1,83.0627370381469,137.52083333333331) translate(40.185546875 115.23480902777777)"/><use xlink:href="#ak" transform="matrix(1,0,0,1,83.0627370381469,137.52083333333331) translate(23.215060763888893 144.29296875)"/><use xlink:href="#S" transform="matrix(1,0,0,1,83.0627370381469,137.52083333333331) translate(10.617404513888886 173.35112847222223)"/><use xlink:href="#al" transform="matrix(1,0,0,1,83.0627370381469,137.52083333333331) translate(56.212022569444436 173.35112847222223)"/><use xlink:href="#am" transform="matrix(1,0,0,1,83.0627370381469,137.52083333333331) translate(94.40646701388889 173.35112847222223)"/><use xlink:href="#an" transform="matrix(1,0,0,1,83.0627370381469,137.52083333333331) translate(26.291232638888893 202.40928819444446)"/><use xlink:href="#ao" transform="matrix(1,0,0,1,83.0627370381469,137.52083333333331) translate(104.505 231.46744791666669)"/></g><path d="M158.06 472.5v-52.95" stroke="#000" stroke-width="2" fill="none"/><path d="M159.06 473.5h-2v-1.03h2z" stroke="#000" stroke-width=".05"/><path d="M158.06 404.28l4.64 14.27h-9.27z" stroke="#000" stroke-width="2"/><path d="M158.06 130.02V-41.62" stroke="#000" stroke-width="2" fill="none"/><path d="M159.06 131.02h-2V130h2z" stroke="#000" stroke-width=".05"/><path d="M158.06-56.88l4.64 14.26h-9.27z" stroke="#000" stroke-width="2"/><path d="M759.06 158.92h-2v-10.4h2z" stroke="#5e5e5e" stroke-width=".05" fill="#5e5e5e"/><path d="M759.06 159.96l-1-.04-1 .04v-1.07h2z" fill="#5e5e5e"/><path d="M759.1 160l-1.04-.06-1.02.05v-1.13h2.05zm-2-1.1v1.04l.96-.05.98.04v-1.03z" stroke="#5e5e5e" stroke-width=".05" fill="#5e5e5e"/><path d="M760.7 125.3h-5.28l2.64-8.16z" fill="#5e5e5e"/><path d="M761.76 125.3h-2.1l-1.6-4.92-1.6 4.9h-2.1l3.7-11.38z" stroke="#5e5e5e" stroke-width=".05" fill="#5e5e5e"/><g><use xlink:href="#h" transform="matrix(1,0,0,1,748.6877370342711,125.28637736028227) translate(0 16.62326388888889)"/></g><path d="M758.06-222.5V-234a6 6 0 0 0-6-6h-588a6 6 0 0 0-6 6v15.55" stroke="#5e5e5e" stroke-width="2" fill="none"/><path d="M759.06-221.5h-2v-1.03h2z" stroke="#5e5e5e" stroke-width=".05" fill="#5e5e5e"/><path d="M158.06-203.18l-4.63-14.27h9.27z" stroke="#5e5e5e" stroke-width="2" fill="#5e5e5e"/><defs><path fill="#333" d="M137 45c-27-2-22-17-22-49v-410c0-33-2-51 26-51 15 0 25 7 25 21 6 265 178 426 450 426 233 0 360-306 211-482-46-55-95-86-174-104-170-39-259-64-270-68-145-46-266-193-268-375-4-266 272-478 553-371 97 36 106 56 174 118l71-117c11-18 21-27 31-27 27 2 23 16 23 49v412c1 33 1 47-27 49-13 0-23-8-25-24-39-285-171-428-399-428-216 0-349 256-214 432 86 112 264 120 413 159 164 43 307 213 307 414 0 225-175 426-404 426-160 0-303-63-376-143-31 51-53 83-74 116-11 18-21 27-31 27" id="ap"/><path fill="#333" d="M680-254c3 164-93 324-276 268-65-20-132-51-162-120-18-41-29-89-29-148v-565H39v-45c127-1 214-117 241-219 14-55 22-114 23-177h51v377h293v64H354v569c0 147 46 221 138 221 96 0 140-111 137-229v-113h51v117" id="aq"/><path fill="#333" d="M682-156C644-59 547 24 414 23 298 21 211-4 144-66c-38-35-58-77-58-129 0-116 69-203 205-266 83-38 208-64 377-74v-75c7-148-90-262-217-262-100 0-174 31-222 94 69-2 103 39 105 94 2 54-38 94-94 94-55 0-95-38-95-96 0-142 158-237 310-232 195 6 354 115 354 355v409c0 46 27 102 76 103 49 0 73-44 73-131v-115h52v115c9 123-75 189-168 194-92 5-154-84-160-168zM428-23c129-4 240-110 240-264v-205c-151 5-260 38-326 98s-98 126-98 197c0 99 86 176 184 174" id="ar"/><path fill="#333" d="M551 0C444-9 194-6 57 0v-63c127-9 160 17 160-93v-549c-5-120-29-107-160-114v-64l285-22v225c37-105 111-225 252-225 79 0 149 53 151 125 1 55-40 89-88 90-50 0-89-36-88-88 1-37 23-70 47-80-187-18-264 195-264 383v315c6 102 34 90 156 97h43V0" id="as"/><g id="a"><use transform="matrix(0.01085069444444444,0,0,0.01085069444444444,0,0)" xlink:href="#ap"/><use transform="matrix(0.01085069444444444,0,0,0.01085069444444444,12.326388888888884,0)" xlink:href="#aq"/><use transform="matrix(0.01085069444444444,0,0,0.01085069444444444,20.94184027777777,0)" xlink:href="#ar"/><use transform="matrix(0.01085069444444444,0,0,0.01085069444444444,32.05295138888888,0)" xlink:href="#as"/><use transform="matrix(0.01085069444444444,0,0,0.01085069444444444,40.73350694444443,0)" xlink:href="#aq"/></g><path fill="#333" d="M74-926l39-460h1251l39 460h-51c-11-138-17-245-80-324-54-68-158-73-289-73-63 0-102 0-117 4-37 9-37 31-37 78v1079c2 66 6 68 64 86 40 14 159 13 233 13V0c-65-8-710-8-776 0v-63c111-2 246 9 289-41 5-11 8-31 8-58-1-373 3-751-2-1120-4-20-17-35-41-37-93-7-277-13-338 25-85 31-109 122-126 223-6 35-10 84-15 145H74" id="at"/><path fill="#333" d="M362-154c5 102 27 83 144 91V0C193-8 376-8 68 0v-63c127-9 159 17 159-93v-551c-4-117-26-105-151-112v-64l286-22v751zm-100-999c-59 0-108-52-108-109 0-54 52-108 108-108 59 0 109 47 109 108s-50 109-109 109" id="au"/><path fill="#333" d="M367-156c6 110 33 84 159 93V0C204-8 392-8 66 0v-63c127-9 159 17 159-93v-549c-5-119-29-107-159-114v-64l288-22v215c64-143 165-215 303-215 159 0 249 67 269 184 25 149 0 419 10 596 4 76 61 55 160 62V0C774-8 960-8 635 0v-63c127-9 160 17 160-93v-477c-3-128-26-228-152-227-155 1-276 151-276 328v376" id="av"/><path fill="#333" d="M666-13C363 125 57-150 57-451c0-242 189-467 426-467 234 0 369 179 367 402 0 45-4 43-51 43H227c0 139 21 241 62 307C366-42 491 4 637-54c76-29 133-100 160-186 0-37 53-37 53-4-28 101-87 187-184 231zm49-503c-9-172-50-356-232-356-175 0-246 163-254 356h486" id="aw"/><path fill="#333" d="M504 23C270 28 70-199 70-440c0-247 215-465 456-465 104 0 190 42 258 127v-443c-5-119-29-107-159-114v-64l295-22v1243c5 119 29 108 159 115V0L778 23v-136C707-23 616 21 504 23zM303-729c-75 112-76 460-4 575C412 27 654 12 756-166c14-24 22-49 22-76v-420c0-27-7-52-22-75-105-169-343-156-453 8" id="ax"/><g id="b"><use transform="matrix(0.01085069444444444,0,0,0.01085069444444444,0,0)" xlink:href="#at"/><use transform="matrix(0.01085069444444444,0,0,0.01085069444444444,14.192708333333325,0)" xlink:href="#as"/><use transform="matrix(0.01085069444444444,0,0,0.01085069444444444,22.873263888888882,0)" xlink:href="#ar"/><use transform="matrix(0.01085069444444444,0,0,0.01085069444444444,33.984374999999986,0)" xlink:href="#au"/><use transform="matrix(0.01085069444444444,0,0,0.01085069444444444,40.136718749999986,0)" xlink:href="#av"/><use transform="matrix(0.01085069444444444,0,0,0.01085069444444444,52.46310763888887,0)" xlink:href="#aw"/><use transform="matrix(0.01085069444444444,0,0,0.01085069444444444,62.326388888888864,0)" xlink:href="#ax"/></g><path fill="#333" d="M367-156c6 110 33 84 159 93V0C204-8 392-8 66 0v-63c127-9 159 17 159-93v-549c-5-119-29-107-159-114v-64l288-22v215c64-143 165-215 303-215 160 0 251 67 273 200 47-100 144-200 297-200 159 0 250 67 269 184 24 150-1 419 9 596 4 76 61 55 160 62V0c-322-8-134-8-461 0v-63c127-9 160 17 160-93v-477c-3-128-26-228-152-227-155 1-276 151-276 328v376c6 110 33 84 160 93V0C774-8 960-8 635 0v-63c127-9 160 17 160-93v-477c-3-128-26-228-152-227-155 1-276 151-276 328v376" id="ay"/><path fill="#333" d="M510 23C271 23 57-192 57-438c0-248 207-480 455-480 245 0 453 231 453 480 0 246-212 461-455 461zM276-735c-65 102-57 469 3 569C356-38 519 16 652-70c114-73 143-179 143-385 0-131-20-225-54-284-73-125-221-171-361-99-43 23-76 59-104 103" id="az"/><path fill="#333" d="M522 0C318-5 322-10 68 0v-63c127-9 159 17 159-93v-1065c-5-119-29-107-159-114v-64l294-22v1265c6 110 34 84 160 93V0" id="aA"/><g id="c"><use transform="matrix(0.01085069444444444,0,0,0.01085069444444444,0,0)" xlink:href="#ay"/><use transform="matrix(0.01085069444444444,0,0,0.01085069444444444,18.50043402777777,0)" xlink:href="#az"/><use transform="matrix(0.01085069444444444,0,0,0.01085069444444444,30.23003472222221,0)" xlink:href="#ax"/><use transform="matrix(0.01085069444444444,0,0,0.01085069444444444,42.55642361111109,0)" xlink:href="#aw"/><use transform="matrix(0.01085069444444444,0,0,0.01085069444444444,52.419704861111086,0)" xlink:href="#aA"/></g><path fill="#333" d="M795-682c33-73-7-137-86-137v-64c125 7 221 9 331 0v64c-102 4-157 60-188 137L584-16c-13 36-39 49-68 32-5-5-11-16-18-32L203-743c-35-78-46-72-164-76v-64c174 9 198 7 422 0v64c-98 2-132 22-105 88l230 571" id="aB"/><path fill="#333" d="M217-1221c-5-119-30-107-160-114v-64l295-22v649c79-89 173-133 281-133 234 0 434 222 434 463 0 249-213 465-457 465-113 0-203-50-268-150C294-44 269-1 268 0h-51v-1221zm141 988c0 29 11 56 29 86C491 25 724 8 834-154c76-112 80-462 4-575-58-85-126-131-215-131-100 0-181 44-242 131-15 22-23 47-23 74v422" id="aC"/><path fill="#333" d="M209-1073c-55-1-96-37-94-98 4-158 165-273 348-273 138 0 235 30 297 84 121 105 118 301-8 393-181 132-265 287-271 457-2 45 19 127-26 127-28 0-23-15-25-49-12-237 54-428 180-553 45-45 66-101 70-195 7-154-74-218-223-219-124 0-214 46-269 139 77 0 115 31 115 93 1 54-38 95-94 94zM455 0c-58 0-109-49-109-108s51-109 109-109 108 50 108 109S513 0 455 0" id="aD"/><g id="d"><use transform="matrix(0.01085069444444444,0,0,0.01085069444444444,0,0)" xlink:href="#ar"/><use transform="matrix(0.01085069444444444,0,0,0.01085069444444444,10.492621527777773,0)" xlink:href="#aB"/><use transform="matrix(0.01085069444444444,0,0,0.01085069444444444,21.582031249999993,0)" xlink:href="#ar"/><use transform="matrix(0.01085069444444444,0,0,0.01085069444444444,32.6931423611111,0)" xlink:href="#au"/><use transform="matrix(0.01085069444444444,0,0,0.01085069444444444,38.8454861111111,0)" xlink:href="#aA"/><use transform="matrix(0.01085069444444444,0,0,0.01085069444444444,44.99782986111109,0)" xlink:href="#ar"/><use transform="matrix(0.01085069444444444,0,0,0.01085069444444444,56.1089409722222,0)" xlink:href="#aC"/><use transform="matrix(0.01085069444444444,0,0,0.01085069444444444,68.43532986111109,0)" xlink:href="#aA"/><use transform="matrix(0.01085069444444444,0,0,0.01085069444444444,74.58767361111109,0)" xlink:href="#aw"/><use transform="matrix(0.01085069444444444,0,0,0.01085069444444444,84.45095486111109,0)" xlink:href="#aD"/></g><path fill="#333" d="M461-160c6 103 37 90 162 97h49V0C610-8 131-8 68 0v-63h49c126-7 162 8 162-97v-1079c-6-103-38-89-162-96H68v-64c62 8 541 8 604 0v64h-49c-125 7-162-8-162 96v479h612v-479c-6-103-37-89-162-96h-49v-64c62 8 541 8 604 0v64h-49c-125 7-162-8-162 96v1079c6 103 38 90 162 97h49V0c-62-8-541-8-604 0v-63h49c126-7 162 8 162-97v-536H461v536" id="aE"/><path fill="#333" d="M227 420c-97 2-188-72-188-166 0-53 37-88 86-88 49-1 86 36 86 86 0 51-27 79-80 86 57 54 150 46 207-8 72-68 78-107 123-209 18-41 36-81 51-121L205-748c-33-73-57-67-166-71v-64c160 9 227 7 422 0v64c-98 4-131 21-103 90l228 551 207-504c31-71 1-138-84-137v-64c163 7 202 9 331 0v64c-91 0-154 44-190 131L489 186c-65 155-153 232-262 234" id="aF"/><g id="e"><use transform="matrix(0.010850694444444442,0,0,0.010850694444444442,0,0)" xlink:href="#aE"/><use transform="matrix(0.010850694444444442,0,0,0.010850694444444442,16.666666666666664,0)" xlink:href="#aw"/><use transform="matrix(0.010850694444444442,0,0,0.010850694444444442,26.529947916666668,0)" xlink:href="#ar"/><use transform="matrix(0.010850694444444442,0,0,0.010850694444444442,37.64105902777777,0)" xlink:href="#aA"/><use transform="matrix(0.010850694444444442,0,0,0.010850694444444442,43.79340277777777,0)" xlink:href="#aq"/><use transform="matrix(0.010850694444444442,0,0,0.010850694444444442,51.79036458333332,0)" xlink:href="#aF"/></g><path fill="#333" d="M90 23C63 23 68 5 68-27v-270c-8-42 16-61 46-45 4 4 5 14 9 29C162-148 223-27 408-23c138 3 231-62 231-186 0-100-72-159-213-188-144-30-186-29-270-95-60-47-88-106-88-174 0-163 130-252 327-252 77 0 141 19 193 58 24-17 51-58 76-58 27 0 22 18 22 50v206c0 33 2 50-27 50-15 0-23-6-24-19-11-165-91-248-240-248-135 0-229 49-229 156 0 130 137 144 252 168 109 23 187 53 233 98 58 57 86 122 86 195C737-85 607 23 408 23c-89 0-164-30-226-89-21 22-73 89-92 89" id="aG"/><g id="f"><use transform="matrix(0.010850694444444442,0,0,0.010850694444444442,0,0)" xlink:href="#ax"/><use transform="matrix(0.010850694444444442,0,0,0.010850694444444442,12.326388888888886,0)" xlink:href="#ar"/><use transform="matrix(0.010850694444444442,0,0,0.010850694444444442,23.43749999999999,0)" xlink:href="#aq"/><use transform="matrix(0.010850694444444442,0,0,0.010850694444444442,32.05295138888888,0)" xlink:href="#ar"/><use transform="matrix(0.010850694444444442,0,0,0.010850694444444442,43.164062499999986,0)" xlink:href="#aG"/><use transform="matrix(0.010850694444444442,0,0,0.010850694444444442,51.909722222222214,0)" xlink:href="#aw"/><use transform="matrix(0.010850694444444442,0,0,0.010850694444444442,61.77300347222221,0)" xlink:href="#aq"/></g><g id="g"><use transform="matrix(0.010850694444444442,0,0,0.010850694444444442,0,0)" xlink:href="#ar"/><use transform="matrix(0.010850694444444442,0,0,0.010850694444444442,10.492621527777775,0)" xlink:href="#aB"/><use transform="matrix(0.010850694444444442,0,0,0.010850694444444442,21.582031249999993,0)" xlink:href="#ar"/><use transform="matrix(0.010850694444444442,0,0,0.010850694444444442,32.6931423611111,0)" xlink:href="#au"/><use transform="matrix(0.010850694444444442,0,0,0.010850694444444442,38.8454861111111,0)" xlink:href="#aA"/><use transform="matrix(0.010850694444444442,0,0,0.010850694444444442,44.9978298611111,0)" xlink:href="#ar"/><use transform="matrix(0.010850694444444442,0,0,0.010850694444444442,56.108940972222214,0)" xlink:href="#aC"/><use transform="matrix(0.010850694444444442,0,0,0.010850694444444442,68.43532986111109,0)" xlink:href="#aA"/><use transform="matrix(0.010850694444444442,0,0,0.010850694444444442,74.58767361111109,0)" xlink:href="#aw"/><use transform="matrix(0.010850694444444442,0,0,0.010850694444444442,84.45095486111109,0)" xlink:href="#aD"/></g><g id="h"><use transform="matrix(0.008680555555555556,0,0,0.008680555555555556,0,0)" xlink:href="#av"/><use transform="matrix(0.008680555555555556,0,0,0.008680555555555556,9.86111111111111,0)" xlink:href="#az"/></g><path fill="#333" d="M360-199c-20 90 57 139 150 136V0C244-7 301-9 66 0v-63c121-3 198-49 229-138l424-1224c8-37 28-45 69-39 17 9 20 18 27 39l442 1280c24 89 88 79 211 82V0c-140-8-465-8-563 0v-63c129-6 190-16 164-91L961-467H455zm117-331h461l-231-666" id="aH"/><path fill="#333" d="M346-156c6 110 33 84 160 93V0C291-8 318-8 57 0v-63c127-9 160 17 160-93v-1065c-5-120-29-107-160-114v-64l295-22v983l289-250c30-26 45-53 45-80 0-31-20-48-59-51v-64c82 6 275 10 372 0v64c-135 5-253 101-355 193-45 41-69 61-69 65 1 8 9 17 13 22l260 367c66 84 77 105 199 109V0C882-9 855-7 647 0v-63c49 0 74-16 74-48 20-7-173-272-244-368L346-367v211" id="aI"/><g id="i"><use transform="matrix(0.010850694444444442,0,0,0.010850694444444442,0,0)" xlink:href="#aH"/><use transform="matrix(0.010850694444444442,0,0,0.010850694444444442,16.666666666666664,0)" xlink:href="#aG"/><use transform="matrix(0.010850694444444442,0,0,0.010850694444444442,25.412326388888882,0)" xlink:href="#aI"/></g><path fill="#333" d="M225-631c-10-184 18-181-159-188v-64l301-22c2 252-10 512 4 757 3 46 30 95 75 110 209 70 349-102 349-302v-365c-5-119-30-107-160-114v-64l301-22v727c5 120 29 108 160 115V0L801 23v-185C744-39 656 23 537 23c-150 0-256-40-291-158-39-130-12-329-21-496" id="aJ"/><g id="j"><use transform="matrix(0.010850694444444442,0,0,0.010850694444444442,0,0)" xlink:href="#aJ"/><use transform="matrix(0.010850694444444442,0,0,0.010850694444444442,12.326388888888886,0)" xlink:href="#aG"/><use transform="matrix(0.010850694444444442,0,0,0.010850694444444442,21.072048611111107,0)" xlink:href="#aw"/><use transform="matrix(0.010850694444444442,0,0,0.010850694444444442,30.935329861111104,0)" xlink:href="#as"/></g><g id="k"><use transform="matrix(0.010850694444444442,0,0,0.010850694444444442,0,0)" xlink:href="#aq"/><use transform="matrix(0.010850694444444442,0,0,0.010850694444444442,8.615451388888888,0)" xlink:href="#az"/></g><g id="l"><use transform="matrix(0.010850694444444442,0,0,0.010850694444444442,0,0)" xlink:href="#au"/><use transform="matrix(0.010850694444444442,0,0,0.010850694444444442,6.152343749999999,0)" xlink:href="#av"/><use transform="matrix(0.010850694444444442,0,0,0.010850694444444442,18.478732638888886,0)" xlink:href="#aG"/><use transform="matrix(0.010850694444444442,0,0,0.010850694444444442,27.224392361111107,0)" xlink:href="#aw"/><use transform="matrix(0.010850694444444442,0,0,0.010850694444444442,37.08767361111111,0)" xlink:href="#as"/><use transform="matrix(0.010850694444444442,0,0,0.010850694444444442,45.76822916666666,0)" xlink:href="#aq"/></g><g id="m"><use transform="matrix(0.010850694444444442,0,0,0.010850694444444442,0,0)" xlink:href="#au"/><use transform="matrix(0.010850694444444442,0,0,0.010850694444444442,6.152343749999999,0)" xlink:href="#av"/><use transform="matrix(0.010850694444444442,0,0,0.010850694444444442,18.478732638888886,0)" xlink:href="#au"/><use transform="matrix(0.010850694444444442,0,0,0.010850694444444442,24.631076388888886,0)" xlink:href="#aq"/><use transform="matrix(0.010850694444444442,0,0,0.010850694444444442,33.24652777777777,0)" xlink:href="#au"/><use transform="matrix(0.010850694444444442,0,0,0.010850694444444442,39.39887152777777,0)" xlink:href="#ar"/><use transform="matrix(0.010850694444444442,0,0,0.010850694444444442,50.50998263888888,0)" xlink:href="#aA"/></g><path fill="#333" d="M367-156c6 110 33 84 159 93V0C204-8 392-8 66 0v-63c127-9 159 17 159-93v-1065c-5-119-29-107-159-114v-64l294-22c1 237-3 479 2 712 45-96 146-196 295-196 159 0 249 67 269 184 25 149 0 419 10 596 4 76 61 55 160 62V0C774-8 960-8 635 0v-63c127-9 160 17 160-93v-477c-3-128-26-228-152-227-155 1-276 151-276 328v376" id="aK"/><g id="n"><use transform="matrix(0.010850694444444442,0,0,0.010850694444444442,0,0)" xlink:href="#aK"/><use transform="matrix(0.010850694444444442,0,0,0.010850694444444442,12.326388888888886,0)" xlink:href="#aw"/><use transform="matrix(0.010850694444444442,0,0,0.010850694444444442,22.189670138888886,0)" xlink:href="#ar"/><use transform="matrix(0.010850694444444442,0,0,0.010850694444444442,33.30078124999999,0)" xlink:href="#aA"/><use transform="matrix(0.010850694444444442,0,0,0.010850694444444442,39.45312499999999,0)" xlink:href="#aq"/><use transform="matrix(0.010850694444444442,0,0,0.010850694444444442,47.45008680555554,0)" xlink:href="#aF"/></g><path fill="#333" d="M650-3C347 112 70-153 70-442c0-247 197-476 444-476 148 0 313 77 313 220 0 58-39 96-94 96-56 0-95-40-94-94 0-57 39-90 96-95-49-51-122-76-219-75-69 0-133 33-190 98s-86 173-86 322c0 198 65 339 197 396 31 14 61 21 91 21 134 0 224-72 269-215 1-27 58-26 53 0C826-131 756-43 650-3" id="aL"/><g id="o"><use transform="matrix(0.010850694444444442,0,0,0.010850694444444442,0,0)" xlink:href="#as"/><use transform="matrix(0.010850694444444442,0,0,0.010850694444444442,8.680555555555554,0)" xlink:href="#aw"/><use transform="matrix(0.010850694444444442,0,0,0.010850694444444442,18.54383680555555,0)" xlink:href="#aL"/><use transform="matrix(0.010850694444444442,0,0,0.010850694444444442,28.40711805555555,0)" xlink:href="#az"/><use transform="matrix(0.010850694444444442,0,0,0.010850694444444442,39.51822916666666,0)" xlink:href="#as"/><use transform="matrix(0.010850694444444442,0,0,0.010850694444444442,48.198784722222214,0)" xlink:href="#ax"/><use transform="matrix(0.010850694444444442,0,0,0.010850694444444442,60.5251736111111,0)" xlink:href="#aG"/></g><g id="p"><use transform="matrix(0.010850694444444442,0,0,0.010850694444444442,0,0)" xlink:href="#at"/><use transform="matrix(0.010850694444444442,0,0,0.010850694444444442,14.19270833333333,0)" xlink:href="#as"/><use transform="matrix(0.010850694444444442,0,0,0.010850694444444442,22.873263888888886,0)" xlink:href="#ar"/><use transform="matrix(0.010850694444444442,0,0,0.010850694444444442,33.98437499999999,0)" xlink:href="#au"/><use transform="matrix(0.010850694444444442,0,0,0.010850694444444442,40.13671874999999,0)" xlink:href="#av"/></g><g id="q"><use transform="matrix(0.010850694444444442,0,0,0.010850694444444442,0,0)" xlink:href="#aq"/><use transform="matrix(0.010850694444444442,0,0,0.010850694444444442,8.615451388888888,0)" xlink:href="#aK"/><use transform="matrix(0.010850694444444442,0,0,0.010850694444444442,20.94184027777777,0)" xlink:href="#aw"/></g><path fill="#333" d="M344-215C339-92 428-62 555-63V0C228-8 403-8 76 0v-63c127 1 211-29 211-152v-1024c-6-103-37-89-162-96H76v-64h346c57 1 55 1 72 45L938-207l448-1153c17-41 13-39 68-39h346v64h-49c-125 7-162-8-162 96v1079c6 103 37 90 162 97h49V0c-72-8-517-8-588 0v-63h50c126-7 161 8 161-97 0-391 3-787-2-1175L918-39c-19 56-57 49-78-6-162-425-328-852-496-1274v1104" id="aM"/><path fill="#333" d="M283 0c-59 0-109-52-109-109s50-106 109-106 106 46 106 107C389-49 338 0 283 0" id="aN"/><path fill="#333" d="M461-145c3 81 12 82 100 82 125 0 260 8 347-31 99-45 144-79 182-182 37-102 38-130 51-252h51L1135 0H68v-63h49c126-7 162 8 162-97v-1079c-6-103-38-89-162-96H68v-64c67 9 604 7 655 0v64c-101 1-218-6-255 41-5 11-7 30-7 57v1092" id="aO"/><g id="r"><use transform="matrix(0.010850694444444442,0,0,0.010850694444444442,0,0)" xlink:href="#aM"/><use transform="matrix(0.010850694444444442,0,0,0.010850694444444442,20.34505208333333,0)" xlink:href="#aN"/><use transform="matrix(0.010850694444444442,0,0,0.010850694444444442,26.51909722222221,0)" xlink:href="#aO"/><use transform="matrix(0.010850694444444442,0,0,0.010850694444444442,40.4079861111111,0)" xlink:href="#aN"/></g><g id="s"><use transform="matrix(0.010850694444444442,0,0,0.010850694444444442,0,0)" xlink:href="#ay"/><use transform="matrix(0.010850694444444442,0,0,0.010850694444444442,18.500434027777775,0)" xlink:href="#az"/><use transform="matrix(0.010850694444444442,0,0,0.010850694444444442,30.230034722222218,0)" xlink:href="#ax"/><use transform="matrix(0.010850694444444442,0,0,0.010850694444444442,42.5564236111111,0)" xlink:href="#aw"/><use transform="matrix(0.010850694444444442,0,0,0.010850694444444442,52.4197048611111,0)" xlink:href="#aA"/></g><g id="t"><use transform="matrix(0.008680555555555556,0,0,0.008680555555555556,0,0)" xlink:href="#aF"/><use transform="matrix(0.008680555555555556,0,0,0.008680555555555556,8.871527777777779,0)" xlink:href="#aw"/><use transform="matrix(0.008680555555555556,0,0,0.008680555555555556,16.76215277777778,0)" xlink:href="#aG"/></g><g id="u"><use transform="matrix(0.010850694444444442,0,0,0.010850694444444442,0,0)" xlink:href="#aO"/><use transform="matrix(0.010850694444444442,0,0,0.010850694444444442,13.888888888888886,0)" xlink:href="#az"/><use transform="matrix(0.010850694444444442,0,0,0.010850694444444442,24.999999999999996,0)" xlink:href="#ar"/><use transform="matrix(0.010850694444444442,0,0,0.010850694444444442,36.1111111111111,0)" xlink:href="#ax"/></g><path fill="#333" d="M279-1239c-6-103-38-89-162-96H68v-64c62 8 541 8 604 0v64h-49c-125 7-162-8-162 96v780c1 259 102 441 338 441 223 0 393-207 393-455v-711c5-122-84-153-211-151v-64c337 8 148 8 485 0v64c-132-2-211 29-211 159 0 259 15 550-6 797-19 218-214 424-454 424-273 0-516-236-516-512v-772" id="aP"/><g id="v"><use transform="matrix(0.010850694444444442,0,0,0.010850694444444442,0,0)" xlink:href="#aP"/><use transform="matrix(0.010850694444444442,0,0,0.010850694444444442,16.666666666666664,0)" xlink:href="#av"/><use transform="matrix(0.010850694444444442,0,0,0.010850694444444442,28.99305555555555,0)" xlink:href="#aL"/><use transform="matrix(0.010850694444444442,0,0,0.010850694444444442,38.85633680555555,0)" xlink:href="#az"/><use transform="matrix(0.010850694444444442,0,0,0.010850694444444442,49.96744791666666,0)" xlink:href="#av"/><use transform="matrix(0.010850694444444442,0,0,0.010850694444444442,62.29383680555554,0)" xlink:href="#aG"/><use transform="matrix(0.010850694444444442,0,0,0.010850694444444442,71.03949652777776,0)" xlink:href="#aJ"/><use transform="matrix(0.010850694444444442,0,0,0.010850694444444442,83.36588541666664,0)" xlink:href="#ay"/><use transform="matrix(0.010850694444444442,0,0,0.010850694444444442,101.8663194444444,0)" xlink:href="#aw"/><use transform="matrix(0.010850694444444442,0,0,0.010850694444444442,111.72960069444443,0)" xlink:href="#ax"/></g><g id="w"><use transform="matrix(0.010850694444444442,0,0,0.010850694444444442,0,0)" xlink:href="#ax"/><use transform="matrix(0.010850694444444442,0,0,0.010850694444444442,12.326388888888886,0)" xlink:href="#ar"/><use transform="matrix(0.010850694444444442,0,0,0.010850694444444442,23.43749999999999,0)" xlink:href="#aq"/><use transform="matrix(0.010850694444444442,0,0,0.010850694444444442,32.05295138888888,0)" xlink:href="#ar"/></g><g id="x"><use transform="matrix(0.009765624999999998,0,0,0.009765624999999998,0,0)" xlink:href="#aq"/><use transform="matrix(0.009765624999999998,0,0,0.009765624999999998,7.753906249999998,0)" xlink:href="#aK"/><use transform="matrix(0.009765624999999998,0,0,0.009765624999999998,18.847656249999996,0)" xlink:href="#aw"/></g><path fill="#333" d="M465-160c6 103 37 90 162 97h49V0C614-8 135-8 72 0v-63h49c126-7 162 8 162-97v-1079c-6-103-38-89-162-96H72v-64h723c243-11 480 161 483 381 3 210-246 371-467 371H465v487zm94-1175c-89 4-100-1-100 82v553c150-6 329 18 441-26 83-33 117-61 146-140 44-122 24-317-48-388-49-48-149-81-257-81H559" id="aQ"/><g id="y"><use transform="matrix(0.009765624999999998,0,0,0.009765624999999998,0,0)" xlink:href="#aQ"/><use transform="matrix(0.009765624999999998,0,0,0.009765624999999998,11.933593749999998,0)" xlink:href="#aN"/><use transform="matrix(0.009765624999999998,0,0,0.009765624999999998,17.490234374999996,0)" xlink:href="#aM"/><use transform="matrix(0.009765624999999998,0,0,0.009765624999999998,35.80078124999999,0)" xlink:href="#aN"/><use transform="matrix(0.009765624999999998,0,0,0.009765624999999998,41.35742187499999,0)" xlink:href="#aH"/></g><g id="z"><use transform="matrix(0.009765624999999998,0,0,0.009765624999999998,0,0)" xlink:href="#au"/><use transform="matrix(0.009765624999999998,0,0,0.009765624999999998,5.537109374999999,0)" xlink:href="#aG"/></g><path fill="#333" d="M1208-678c36-80-25-143-108-141v-64c137 7 223 9 340 0v64c-85 3-142 46-172 131L1028-16c-26 50-63 54-82 0L737-598 530-18c-11 28-8 41-40 41s-34-18-44-46L188-748c-30-70-47-68-151-71v-64c196 9 177 7 414 0v64c-102 2-136 23-111 92l195 547 176-496c-25-67-40-104-47-112-17-21-60-31-129-31v-64c173 9 175 7 395 0v64c-103 3-137 22-111 94l203 571" id="aR"/><g id="A"><use transform="matrix(0.009765624999999998,0,0,0.009765624999999998,0,0)" xlink:href="#av"/><use transform="matrix(0.009765624999999998,0,0,0.009765624999999998,11.093749999999998,0)" xlink:href="#az"/><use transform="matrix(0.009765624999999998,0,0,0.009765624999999998,20.537109374999996,0)" xlink:href="#aR"/></g><g id="B"><use transform="matrix(0.009765624999999998,0,0,0.009765624999999998,0,0)" xlink:href="#ar"/><use transform="matrix(0.009765624999999998,0,0,0.009765624999999998,9.999999999999998,0)" xlink:href="#aL"/><use transform="matrix(0.009765624999999998,0,0,0.009765624999999998,18.876953124999996,0)" xlink:href="#aq"/><use transform="matrix(0.009765624999999998,0,0,0.009765624999999998,26.63085937499999,0)" xlink:href="#au"/><use transform="matrix(0.009765624999999998,0,0,0.009765624999999998,32.16796874999999,0)" xlink:href="#aB"/><use transform="matrix(0.009765624999999998,0,0,0.009765624999999998,42.14843749999999,0)" xlink:href="#aw"/></g><g id="C"><use transform="matrix(0.010850694444444444,0,0,0.010850694444444444,0,0)" xlink:href="#aw"/><use transform="matrix(0.010850694444444444,0,0,0.010850694444444444,9.86328125,0)" xlink:href="#aB"/><use transform="matrix(0.010850694444444444,0,0,0.010850694444444444,20.95269097222222,0)" xlink:href="#ar"/><use transform="matrix(0.010850694444444444,0,0,0.010850694444444444,32.06380208333333,0)" xlink:href="#aA"/><use transform="matrix(0.010850694444444444,0,0,0.010850694444444444,38.21614583333333,0)" xlink:href="#aJ"/><use transform="matrix(0.010850694444444444,0,0,0.010850694444444444,50.54253472222221,0)" xlink:href="#ar"/><use transform="matrix(0.010850694444444444,0,0,0.010850694444444444,61.65364583333333,0)" xlink:href="#aq"/><use transform="matrix(0.010850694444444444,0,0,0.010850694444444444,70.26909722222221,0)" xlink:href="#aw"/></g><g id="D"><use transform="matrix(0.010850694444444444,0,0,0.010850694444444444,0,0)" xlink:href="#az"/><use transform="matrix(0.010850694444444444,0,0,0.010850694444444444,11.11111111111111,0)" xlink:href="#aA"/><use transform="matrix(0.010850694444444444,0,0,0.010850694444444444,17.26345486111111,0)" xlink:href="#ax"/><use transform="matrix(0.010850694444444444,0,0,0.010850694444444444,29.58984375,0)" xlink:href="#aw"/><use transform="matrix(0.010850694444444444,0,0,0.010850694444444444,39.453125,0)" xlink:href="#aG"/><use transform="matrix(0.010850694444444444,0,0,0.010850694444444444,48.19878472222222,0)" xlink:href="#aq"/></g><g id="E"><use transform="matrix(0.010850694444444444,0,0,0.010850694444444444,0,0)" xlink:href="#as"/><use transform="matrix(0.010850694444444444,0,0,0.010850694444444444,8.680555555555555,0)" xlink:href="#aw"/><use transform="matrix(0.010850694444444444,0,0,0.010850694444444444,18.543836805555557,0)" xlink:href="#aL"/><use transform="matrix(0.010850694444444444,0,0,0.010850694444444444,28.40711805555556,0)" xlink:href="#az"/><use transform="matrix(0.010850694444444444,0,0,0.010850694444444444,39.51822916666667,0)" xlink:href="#as"/><use transform="matrix(0.010850694444444444,0,0,0.010850694444444444,48.19878472222223,0)" xlink:href="#ax"/></g><g id="F"><use transform="matrix(0.010850694444444444,0,0,0.010850694444444444,0,0)" xlink:href="#aR"/><use transform="matrix(0.010850694444444444,0,0,0.010850694444444444,16.03732638888889,0)" xlink:href="#au"/><use transform="matrix(0.010850694444444444,0,0,0.010850694444444444,22.18967013888889,0)" xlink:href="#aq"/><use transform="matrix(0.010850694444444444,0,0,0.010850694444444444,30.805121527777775,0)" xlink:href="#aK"/></g><g id="G"><use transform="matrix(0.010850694444444444,0,0,0.010850694444444444,0,0)" xlink:href="#aM"/><use transform="matrix(0.010850694444444444,0,0,0.010850694444444444,20.345052083333332,0)" xlink:href="#aN"/><use transform="matrix(0.010850694444444444,0,0,0.010850694444444444,26.51909722222222,0)" xlink:href="#aO"/><use transform="matrix(0.010850694444444444,0,0,0.010850694444444444,40.407986111111114,0)" xlink:href="#aN"/></g><path fill="#333" d="M461-160c7 105 39 90 168 97h53V0C622-8 117-8 57 0v-63h54c129-8 168 9 168-97v-1079c-7-104-40-89-168-96H57v-64c59 8 565 8 625 0v64h-53c-129 8-168-9-168 96v1079" id="aS"/><g id="H"><use transform="matrix(0.010850694444444444,0,0,0.010850694444444444,0,0)" xlink:href="#aS"/><use transform="matrix(0.010850694444444444,0,0,0.010850694444444444,8.018663194444445,0)" xlink:href="#aG"/></g><g id="I"><use transform="matrix(0.010850694444444444,0,0,0.010850694444444444,0,0)" xlink:href="#au"/><use transform="matrix(0.010850694444444444,0,0,0.010850694444444444,6.15234375,0)" xlink:href="#aq"/></g><g id="J"><use transform="matrix(0.010850694444444444,0,0,0.010850694444444444,0,0)" xlink:href="#av"/><use transform="matrix(0.010850694444444444,0,0,0.010850694444444444,12.32638888888889,0)" xlink:href="#az"/><use transform="matrix(0.010850694444444444,0,0,0.010850694444444444,22.819010416666664,0)" xlink:href="#aB"/><use transform="matrix(0.010850694444444444,0,0,0.010850694444444444,33.908420138888886,0)" xlink:href="#aw"/><use transform="matrix(0.010850694444444444,0,0,0.010850694444444444,43.771701388888886,0)" xlink:href="#aA"/><use transform="matrix(0.010850694444444444,0,0,0.010850694444444444,49.924045138888886,0)" xlink:href="#aq"/><use transform="matrix(0.010850694444444444,0,0,0.010850694444444444,57.92100694444444,0)" xlink:href="#aF"/><use transform="matrix(0.010850694444444444,0,0,0.010850694444444444,69.62890625,0)" xlink:href="#aD"/></g><g id="K"><use transform="matrix(0.010850694444444444,0,0,0.010850694444444444,0,0)" xlink:href="#aq"/><use transform="matrix(0.010850694444444444,0,0,0.010850694444444444,8.61545138888889,0)" xlink:href="#as"/><use transform="matrix(0.010850694444444444,0,0,0.010850694444444444,17.296006944444443,0)" xlink:href="#ar"/><use transform="matrix(0.010850694444444444,0,0,0.010850694444444444,28.407118055555554,0)" xlink:href="#au"/><use transform="matrix(0.010850694444444444,0,0,0.010850694444444444,34.55946180555556,0)" xlink:href="#av"/><use transform="matrix(0.010850694444444444,0,0,0.010850694444444444,46.88585069444444,0)" xlink:href="#aw"/><use transform="matrix(0.010850694444444444,0,0,0.010850694444444444,56.74913194444444,0)" xlink:href="#ax"/></g><path fill="#333" d="M70-63c127-9 159 17 159-93v-663H68v-64h161v-235c-11-186 150-323 318-326 94-2 183 60 184 144 0 53-35 90-90 90-52 0-88-39-88-88 0-44 20-73 61-86-157-62-256 102-256 264v237h240v64H365v659c6 102 34 91 155 97h43V0C457-9 207-6 70 0v-63" id="aT"/><g id="L"><use transform="matrix(0.010850694444444444,0,0,0.010850694444444444,0,0)" xlink:href="#aT"/><use transform="matrix(0.010850694444444444,0,0,0.010850694444444444,6.770833333333333,0)" xlink:href="#ar"/><use transform="matrix(0.010850694444444444,0,0,0.010850694444444444,17.881944444444443,0)" xlink:href="#aJ"/><use transform="matrix(0.010850694444444444,0,0,0.010850694444444444,30.208333333333332,0)" xlink:href="#aA"/><use transform="matrix(0.010850694444444444,0,0,0.010850694444444444,36.36067708333333,0)" xlink:href="#aq"/></g><g id="M"><use transform="matrix(0.010850694444444444,0,0,0.010850694444444444,0,0)" xlink:href="#ay"/><use transform="matrix(0.010850694444444444,0,0,0.010850694444444444,18.50043402777778,0)" xlink:href="#az"/><use transform="matrix(0.010850694444444444,0,0,0.010850694444444444,30.23003472222222,0)" xlink:href="#ax"/><use transform="matrix(0.010850694444444444,0,0,0.010850694444444444,42.556423611111114,0)" xlink:href="#aw"/><use transform="matrix(0.010850694444444444,0,0,0.010850694444444444,52.41970486111112,0)" xlink:href="#aA"/></g><g id="N"><use transform="matrix(0.010850694444444444,0,0,0.010850694444444444,0,0)" xlink:href="#ar"/><use transform="matrix(0.010850694444444444,0,0,0.010850694444444444,10.492621527777777,0)" xlink:href="#aB"/><use transform="matrix(0.010850694444444444,0,0,0.010850694444444444,21.58203125,0)" xlink:href="#ar"/><use transform="matrix(0.010850694444444444,0,0,0.010850694444444444,32.693142361111114,0)" xlink:href="#au"/><use transform="matrix(0.010850694444444444,0,0,0.010850694444444444,38.845486111111114,0)" xlink:href="#aA"/><use transform="matrix(0.010850694444444444,0,0,0.010850694444444444,44.99782986111111,0)" xlink:href="#ar"/><use transform="matrix(0.010850694444444444,0,0,0.010850694444444444,56.10894097222223,0)" xlink:href="#aC"/><use transform="matrix(0.010850694444444444,0,0,0.010850694444444444,68.43532986111111,0)" xlink:href="#aA"/><use transform="matrix(0.010850694444444444,0,0,0.010850694444444444,74.58767361111111,0)" xlink:href="#aw"/><use transform="matrix(0.010850694444444444,0,0,0.010850694444444444,84.45095486111111,0)" xlink:href="#aD"/></g><path fill="#333" d="M854-426c-7-191-24-236-217-240H461v504c2 65 1 70 57 88 36 11 139 12 205 11V0C671-7 135-9 68 0v-63h49c126-7 162 8 162-97v-1073c-6-103-38-89-162-96H68v-64h1124l57 461h-51c-20-144-27-219-93-303-61-78-153-94-298-94H561c-88 4-100 0-100 82v518h176c192-4 210-50 217-240h51v543h-51" id="aU"/><g id="O"><use transform="matrix(0.010850694444444442,0,0,0.010850694444444442,0,0)" xlink:href="#aU"/><use transform="matrix(0.010850694444444442,0,0,0.010850694444444442,12.641059027777775,0)" xlink:href="#ar"/><use transform="matrix(0.010850694444444442,0,0,0.010850694444444442,23.752170138888886,0)" xlink:href="#aJ"/><use transform="matrix(0.010850694444444442,0,0,0.010850694444444442,36.07855902777777,0)" xlink:href="#aA"/><use transform="matrix(0.010850694444444442,0,0,0.010850694444444442,42.23090277777777,0)" xlink:href="#aq"/></g><g id="P"><use transform="matrix(0.010850694444444444,0,0,0.010850694444444444,0,0)" xlink:href="#aR"/><use transform="matrix(0.010850694444444444,0,0,0.010850694444444444,15.418836805555555,0)" xlink:href="#ar"/><use transform="matrix(0.010850694444444444,0,0,0.010850694444444444,26.529947916666664,0)" xlink:href="#as"/><use transform="matrix(0.010850694444444444,0,0,0.010850694444444444,35.21050347222222,0)" xlink:href="#av"/></g><g id="Q"><use transform="matrix(0.010850694444444444,0,0,0.010850694444444444,0,0)" xlink:href="#ar"/><use transform="matrix(0.010850694444444444,0,0,0.010850694444444444,11.11111111111111,0)" xlink:href="#aC"/><use transform="matrix(0.010850694444444444,0,0,0.010850694444444444,24.055989583333336,0)" xlink:href="#az"/><use transform="matrix(0.010850694444444444,0,0,0.010850694444444444,35.16710069444444,0)" xlink:href="#aJ"/><use transform="matrix(0.010850694444444444,0,0,0.010850694444444444,47.49348958333333,0)" xlink:href="#aq"/></g><path fill="#333" d="M367-33c-66 70-195 22-191-76 3-59 44-111 109-108 95 4 131 106 131 215 0 129-72 286-128 350-28 31-48 47-59 47-25-2-23-27-6-45C324 248 370 127 371-2c0-21-1-31-4-31" id="aV"/><g id="R"><use transform="matrix(0.010850694444444444,0,0,0.010850694444444444,0,0)" xlink:href="#av"/><use transform="matrix(0.010850694444444444,0,0,0.010850694444444444,12.32638888888889,0)" xlink:href="#az"/><use transform="matrix(0.010850694444444444,0,0,0.010850694444444444,22.819010416666664,0)" xlink:href="#aB"/><use transform="matrix(0.010850694444444444,0,0,0.010850694444444444,33.908420138888886,0)" xlink:href="#aw"/><use transform="matrix(0.010850694444444444,0,0,0.010850694444444444,43.771701388888886,0)" xlink:href="#aA"/><use transform="matrix(0.010850694444444444,0,0,0.010850694444444444,49.924045138888886,0)" xlink:href="#aq"/><use transform="matrix(0.010850694444444444,0,0,0.010850694444444444,57.92100694444444,0)" xlink:href="#aF"/><use transform="matrix(0.010850694444444444,0,0,0.010850694444444444,69.62890625,0)" xlink:href="#aV"/></g><path fill="#333" d="M358 242c0 110 34 83 160 92v63c-326-8-138-8-461 0v-63c126-9 160 17 160-92v-959c-5-112-32-94-160-102v-64l295-22v135c82-90 178-135 287-135 232 0 428 223 428 463 0 249-213 465-457 465-112 0-225-80-252-144v363zM623-854c-125 0-215 75-265 164v457c1 54 3 44 29 86C439-62 512-21 602-23c176-3 295-216 295-419 0-193-105-412-274-412" id="aW"/><g id="S"><use transform="matrix(0.010850694444444444,0,0,0.010850694444444444,0,0)" xlink:href="#aW"/><use transform="matrix(0.010850694444444444,0,0,0.010850694444444444,12.32638888888889,0)" xlink:href="#aA"/><use transform="matrix(0.010850694444444444,0,0,0.010850694444444444,18.47873263888889,0)" xlink:href="#az"/><use transform="matrix(0.010850694444444444,0,0,0.010850694444444444,29.58984375,0)" xlink:href="#aq"/></g><g id="T"><use transform="matrix(0.010850694444444444,0,0,0.010850694444444444,0,0)" xlink:href="#aq"/><use transform="matrix(0.010850694444444444,0,0,0.010850694444444444,8.61545138888889,0)" xlink:href="#aK"/><use transform="matrix(0.010850694444444444,0,0,0.010850694444444444,20.94184027777778,0)" xlink:href="#aw"/></g><g id="U"><use transform="matrix(0.010850694444444444,0,0,0.010850694444444444,0,0)" xlink:href="#av"/><use transform="matrix(0.010850694444444444,0,0,0.010850694444444444,12.32638888888889,0)" xlink:href="#az"/><use transform="matrix(0.010850694444444444,0,0,0.010850694444444444,22.819010416666664,0)" xlink:href="#aB"/><use transform="matrix(0.010850694444444444,0,0,0.010850694444444444,33.908420138888886,0)" xlink:href="#aw"/><use transform="matrix(0.010850694444444444,0,0,0.010850694444444444,43.771701388888886,0)" xlink:href="#aA"/><use transform="matrix(0.010850694444444444,0,0,0.010850694444444444,49.924045138888886,0)" xlink:href="#aq"/><use transform="matrix(0.010850694444444444,0,0,0.010850694444444444,57.92100694444444,0)" xlink:href="#aF"/></g><g id="V"><use transform="matrix(0.010850694444444444,0,0,0.010850694444444444,0,0)" xlink:href="#aW"/><use transform="matrix(0.010850694444444444,0,0,0.010850694444444444,12.32638888888889,0)" xlink:href="#as"/><use transform="matrix(0.010850694444444444,0,0,0.010850694444444444,21.006944444444443,0)" xlink:href="#aw"/><use transform="matrix(0.010850694444444444,0,0,0.010850694444444444,30.870225694444443,0)" xlink:href="#ax"/><use transform="matrix(0.010850694444444444,0,0,0.010850694444444444,43.19661458333333,0)" xlink:href="#au"/><use transform="matrix(0.010850694444444444,0,0,0.010850694444444444,49.34895833333333,0)" xlink:href="#aL"/><use transform="matrix(0.010850694444444444,0,0,0.010850694444444444,59.21223958333333,0)" xlink:href="#aq"/><use transform="matrix(0.010850694444444444,0,0,0.010850694444444444,67.82769097222221,0)" xlink:href="#au"/><use transform="matrix(0.010850694444444444,0,0,0.010850694444444444,73.98003472222221,0)" xlink:href="#az"/><use transform="matrix(0.010850694444444444,0,0,0.010850694444444444,85.09114583333333,0)" xlink:href="#av"/></g><g id="W"><use transform="matrix(0.010850694444444442,0,0,0.010850694444444442,0,0)" xlink:href="#aT"/><use transform="matrix(0.010850694444444442,0,0,0.010850694444444442,6.770833333333332,0)" xlink:href="#au"/><use transform="matrix(0.010850694444444442,0,0,0.010850694444444442,12.923177083333334,0)" xlink:href="#aq"/></g><g id="X"><use transform="matrix(0.010850694444444442,0,0,0.010850694444444442,0,0)" xlink:href="#aw"/><use transform="matrix(0.010850694444444442,0,0,0.010850694444444442,9.863281249999998,0)" xlink:href="#aB"/><use transform="matrix(0.010850694444444442,0,0,0.010850694444444442,20.952690972222218,0)" xlink:href="#az"/><use transform="matrix(0.010850694444444442,0,0,0.010850694444444442,32.06380208333333,0)" xlink:href="#aA"/><use transform="matrix(0.010850694444444442,0,0,0.010850694444444442,38.21614583333333,0)" xlink:href="#aJ"/><use transform="matrix(0.010850694444444442,0,0,0.010850694444444442,50.542534722222214,0)" xlink:href="#aq"/><use transform="matrix(0.010850694444444442,0,0,0.010850694444444442,59.1579861111111,0)" xlink:href="#au"/><use transform="matrix(0.010850694444444442,0,0,0.010850694444444442,65.3103298611111,0)" xlink:href="#az"/><use transform="matrix(0.010850694444444442,0,0,0.010850694444444442,76.42144097222221,0)" xlink:href="#av"/></g><g id="Y"><use transform="matrix(0.010850694444444442,0,0,0.010850694444444442,0,0)" xlink:href="#az"/><use transform="matrix(0.010850694444444442,0,0,0.010850694444444442,11.111111111111109,0)" xlink:href="#aT"/></g><g id="Z"><use transform="matrix(0.010850694444444442,0,0,0.010850694444444442,0,0)" xlink:href="#aq"/><use transform="matrix(0.010850694444444442,0,0,0.010850694444444442,8.615451388888888,0)" xlink:href="#aK"/><use transform="matrix(0.010850694444444442,0,0,0.010850694444444442,20.94184027777777,0)" xlink:href="#aw"/></g><g id="aa"><use transform="matrix(0.010850694444444442,0,0,0.010850694444444442,0,0)" xlink:href="#ay"/><use transform="matrix(0.010850694444444442,0,0,0.010850694444444442,18.500434027777775,0)" xlink:href="#aw"/><use transform="matrix(0.010850694444444442,0,0,0.010850694444444442,28.36371527777777,0)" xlink:href="#aq"/><use transform="matrix(0.010850694444444442,0,0,0.010850694444444442,36.97916666666666,0)" xlink:href="#as"/><use transform="matrix(0.010850694444444442,0,0,0.010850694444444442,45.659722222222214,0)" xlink:href="#au"/><use transform="matrix(0.010850694444444442,0,0,0.010850694444444442,51.812065972222214,0)" xlink:href="#aL"/></g><g id="ab"><use transform="matrix(0.010850694444444442,0,0,0.010850694444444442,0,0)" xlink:href="#aw"/><use transform="matrix(0.010850694444444442,0,0,0.010850694444444442,9.863281249999998,0)" xlink:href="#aB"/><use transform="matrix(0.010850694444444442,0,0,0.010850694444444442,20.952690972222218,0)" xlink:href="#ar"/><use transform="matrix(0.010850694444444442,0,0,0.010850694444444442,32.06380208333333,0)" xlink:href="#aA"/><use transform="matrix(0.010850694444444442,0,0,0.010850694444444442,38.21614583333333,0)" xlink:href="#aJ"/><use transform="matrix(0.010850694444444442,0,0,0.010850694444444442,50.542534722222214,0)" xlink:href="#ar"/><use transform="matrix(0.010850694444444442,0,0,0.010850694444444442,61.65364583333332,0)" xlink:href="#aq"/><use transform="matrix(0.010850694444444442,0,0,0.010850694444444442,70.26909722222221,0)" xlink:href="#aw"/></g><g id="ac"><use transform="matrix(0.010850694444444442,0,0,0.010850694444444442,0,0)" xlink:href="#aR"/><use transform="matrix(0.010850694444444442,0,0,0.010850694444444442,16.037326388888886,0)" xlink:href="#au"/><use transform="matrix(0.010850694444444442,0,0,0.010850694444444442,22.189670138888886,0)" xlink:href="#aq"/><use transform="matrix(0.010850694444444442,0,0,0.010850694444444442,30.80512152777777,0)" xlink:href="#aK"/></g><g id="ad"><use transform="matrix(0.010850694444444442,0,0,0.010850694444444442,0,0)" xlink:href="#aT"/><use transform="matrix(0.010850694444444442,0,0,0.010850694444444442,6.770833333333332,0)" xlink:href="#ar"/><use transform="matrix(0.010850694444444442,0,0,0.010850694444444442,17.881944444444443,0)" xlink:href="#aJ"/><use transform="matrix(0.010850694444444442,0,0,0.010850694444444442,30.20833333333333,0)" xlink:href="#aA"/><use transform="matrix(0.010850694444444442,0,0,0.010850694444444442,36.36067708333333,0)" xlink:href="#aq"/></g><g id="ae"><use transform="matrix(0.010850694444444442,0,0,0.010850694444444442,0,0)" xlink:href="#ay"/><use transform="matrix(0.010850694444444442,0,0,0.010850694444444442,18.500434027777775,0)" xlink:href="#az"/><use transform="matrix(0.010850694444444442,0,0,0.010850694444444442,30.230034722222218,0)" xlink:href="#ax"/><use transform="matrix(0.010850694444444442,0,0,0.010850694444444442,42.5564236111111,0)" xlink:href="#aw"/><use transform="matrix(0.010850694444444442,0,0,0.010850694444444442,52.4197048611111,0)" xlink:href="#aA"/></g><g id="af"><use transform="matrix(0.010850694444444442,0,0,0.010850694444444442,0,0)" xlink:href="#aM"/><use transform="matrix(0.010850694444444442,0,0,0.010850694444444442,20.34505208333333,0)" xlink:href="#aN"/><use transform="matrix(0.010850694444444442,0,0,0.010850694444444442,26.51909722222221,0)" xlink:href="#aO"/><use transform="matrix(0.010850694444444442,0,0,0.010850694444444442,40.4079861111111,0)" xlink:href="#aN"/></g><g id="ag"><use transform="matrix(0.010850694444444442,0,0,0.010850694444444442,0,0)" xlink:href="#ay"/><use transform="matrix(0.010850694444444442,0,0,0.010850694444444442,18.500434027777775,0)" xlink:href="#aw"/><use transform="matrix(0.010850694444444442,0,0,0.010850694444444442,28.36371527777777,0)" xlink:href="#aq"/><use transform="matrix(0.010850694444444442,0,0,0.010850694444444442,36.97916666666666,0)" xlink:href="#as"/><use transform="matrix(0.010850694444444442,0,0,0.010850694444444442,45.659722222222214,0)" xlink:href="#au"/><use transform="matrix(0.010850694444444442,0,0,0.010850694444444442,51.812065972222214,0)" xlink:href="#aL"/><use transform="matrix(0.010850694444444442,0,0,0.010850694444444442,61.67534722222221,0)" xlink:href="#aG"/></g><path fill="#333" d="M338 127c-172-355-176-902-6-1264 58-124 174-280 260-356 33-29 56-43 65-43 13 0 20 7 21 20 0 7-10 18-27 35-221 223-329 547-329 969 0 423 107 743 321 958 23 23 35 39 35 46 0 13-7 20-21 20-9 0-31-13-63-41-84-73-198-224-256-344" id="aX"/><g id="ah"><use transform="matrix(0.010850694444444442,0,0,0.010850694444444442,0,0)" xlink:href="#aX"/><use transform="matrix(0.010850694444444442,0,0,0.010850694444444442,8.615451388888888,0)" xlink:href="#av"/><use transform="matrix(0.010850694444444442,0,0,0.010850694444444442,20.94184027777777,0)" xlink:href="#az"/><use transform="matrix(0.010850694444444442,0,0,0.010850694444444442,31.43446180555555,0)" xlink:href="#aB"/><use transform="matrix(0.010850694444444442,0,0,0.010850694444444442,42.52387152777777,0)" xlink:href="#aw"/><use transform="matrix(0.010850694444444442,0,0,0.010850694444444442,52.387152777777764,0)" xlink:href="#aA"/><use transform="matrix(0.010850694444444442,0,0,0.010850694444444442,58.53949652777778,0)" xlink:href="#aq"/><use transform="matrix(0.010850694444444442,0,0,0.010850694444444442,66.53645833333333,0)" xlink:href="#aF"/></g><g id="ai"><use transform="matrix(0.010850694444444442,0,0,0.010850694444444442,0,0)" xlink:href="#ar"/><use transform="matrix(0.010850694444444442,0,0,0.010850694444444442,11.111111111111109,0)" xlink:href="#av"/><use transform="matrix(0.010850694444444442,0,0,0.010850694444444442,23.43749999999999,0)" xlink:href="#ax"/></g><path fill="#333" d="M117 492c0-7 9-18 26-35C363 233 473-90 473-512c0-423-105-743-317-956-25-25-39-41-39-48 0-13 7-20 20-20 9 0 31 13 63 41 230 201 392 560 392 983 0 332-102 642-261 840-52 65-94 112-128 141s-56 43-66 43c-13 0-20-7-20-20" id="aY"/><g id="aj"><use transform="matrix(0.010850694444444442,0,0,0.010850694444444442,0,0)" xlink:href="#aT"/><use transform="matrix(0.010850694444444442,0,0,0.010850694444444442,6.770833333333332,0)" xlink:href="#ar"/><use transform="matrix(0.010850694444444442,0,0,0.010850694444444442,17.881944444444443,0)" xlink:href="#aJ"/><use transform="matrix(0.010850694444444442,0,0,0.010850694444444442,30.20833333333333,0)" xlink:href="#aA"/><use transform="matrix(0.010850694444444442,0,0,0.010850694444444442,36.36067708333333,0)" xlink:href="#aq"/><use transform="matrix(0.010850694444444442,0,0,0.010850694444444442,44.976128472222214,0)" xlink:href="#aY"/></g><g id="ak"><use transform="matrix(0.010850694444444444,0,0,0.010850694444444444,0,0)" xlink:href="#aW"/><use transform="matrix(0.010850694444444444,0,0,0.010850694444444444,12.32638888888889,0)" xlink:href="#as"/><use transform="matrix(0.010850694444444444,0,0,0.010850694444444444,21.006944444444443,0)" xlink:href="#aw"/><use transform="matrix(0.010850694444444444,0,0,0.010850694444444444,30.870225694444443,0)" xlink:href="#ax"/><use transform="matrix(0.010850694444444444,0,0,0.010850694444444444,43.19661458333333,0)" xlink:href="#au"/><use transform="matrix(0.010850694444444444,0,0,0.010850694444444444,49.34895833333333,0)" xlink:href="#aL"/><use transform="matrix(0.010850694444444444,0,0,0.010850694444444444,59.21223958333333,0)" xlink:href="#aq"/><use transform="matrix(0.010850694444444444,0,0,0.010850694444444444,67.82769097222221,0)" xlink:href="#au"/><use transform="matrix(0.010850694444444444,0,0,0.010850694444444444,73.98003472222221,0)" xlink:href="#az"/><use transform="matrix(0.010850694444444444,0,0,0.010850694444444444,85.09114583333333,0)" xlink:href="#av"/><use transform="matrix(0.010850694444444444,0,0,0.010850694444444444,97.41753472222221,0)" xlink:href="#aV"/></g><g id="al"><use transform="matrix(0.010850694444444444,0,0,0.010850694444444444,0,0)" xlink:href="#aq"/><use transform="matrix(0.010850694444444444,0,0,0.010850694444444444,8.61545138888889,0)" xlink:href="#aK"/><use transform="matrix(0.010850694444444444,0,0,0.010850694444444444,20.94184027777778,0)" xlink:href="#aw"/></g><g id="am"><use transform="matrix(0.010850694444444444,0,0,0.010850694444444444,0,0)" xlink:href="#aT"/><use transform="matrix(0.010850694444444444,0,0,0.010850694444444444,6.770833333333333,0)" xlink:href="#ar"/><use transform="matrix(0.010850694444444444,0,0,0.010850694444444444,17.881944444444443,0)" xlink:href="#aJ"/><use transform="matrix(0.010850694444444444,0,0,0.010850694444444444,30.208333333333332,0)" xlink:href="#aA"/><use transform="matrix(0.010850694444444444,0,0,0.010850694444444444,36.36067708333333,0)" xlink:href="#aq"/></g><g id="an"><use transform="matrix(0.010850694444444444,0,0,0.010850694444444444,0,0)" xlink:href="#aW"/><use transform="matrix(0.010850694444444444,0,0,0.010850694444444444,12.32638888888889,0)" xlink:href="#as"/><use transform="matrix(0.010850694444444444,0,0,0.010850694444444444,21.006944444444443,0)" xlink:href="#aw"/><use transform="matrix(0.010850694444444444,0,0,0.010850694444444444,30.870225694444443,0)" xlink:href="#ax"/><use transform="matrix(0.010850694444444444,0,0,0.010850694444444444,43.19661458333333,0)" xlink:href="#au"/><use transform="matrix(0.010850694444444444,0,0,0.010850694444444444,49.34895833333333,0)" xlink:href="#aL"/><use transform="matrix(0.010850694444444444,0,0,0.010850694444444444,59.21223958333333,0)" xlink:href="#aq"/><use transform="matrix(0.010850694444444444,0,0,0.010850694444444444,67.82769097222221,0)" xlink:href="#au"/><use transform="matrix(0.010850694444444444,0,0,0.010850694444444444,73.98003472222221,0)" xlink:href="#az"/><use transform="matrix(0.010850694444444444,0,0,0.010850694444444444,85.09114583333333,0)" xlink:href="#av"/></g></defs></g></svg>